HIERARCHY
ROOT Root
{
  OFFSET 0.0 0.0 0.0
  CHANNELS 6 Xposition Yposition Zposition Zrotation Yrotation Xrotation
  JOINT Hips
  {
    OFFSET 0.0 100.0 0.0
    CHANNELS 6 Xposition Yposition Zposition Zrotation Yrotation Xrotation
    JOINT Spine1
    {
      OFFSET 5.003913 -0.037094 -0.013727
      CHANNELS 3 Zrotation Yrotation Xrotation
      JOINT Spine2
      {
        OFFSET 7.125363 -1e-06 0.0
        CHANNELS 3 Zrotation Yrotation Xrotation
        JOINT Chest
        {
          OFFSET 7.594027 1e-06 0.0
          CHANNELS 3 Zrotation Yrotation Xrotation
          JOINT Neck1
          {
            OFFSET 26.313086 -0.460272 -0.181672
            CHANNELS 3 Zrotation Yrotation Xrotation
            JOINT Neck2
            {
              OFFSET 8.045911 0.0 0.0
              CHANNELS 3 Zrotation Yrotation Xrotation
              JOINT Head
              {
                OFFSET 6.432774 0.0 0.0
                CHANNELS 3 Zrotation Yrotation Xrotation
                JOINT HeadEnd
                {
                  OFFSET 16.169773 0.06451 0.00362
                  CHANNELS 3 Zrotation Yrotation Xrotation
                }
                JOINT Jaw
                {
                  OFFSET 0.108741 3.12938 0.002639
                  CHANNELS 3 Zrotation Yrotation Xrotation
                }
                JOINT LeftEye
                {
                  OFFSET 4.45173 8.166359 3.206392
                  CHANNELS 3 Zrotation Yrotation Xrotation
                }
                JOINT RightEye
                {
                  OFFSET 4.436895 8.135758 -3.222429
                  CHANNELS 3 Zrotation Yrotation Xrotation
                }
              }
            }
          }
          JOINT LeftShoulder
          {
            OFFSET 23.218927 5.195579 1.621656
            CHANNELS 3 Zrotation Yrotation Xrotation
            JOINT LeftArm
            {
              OFFSET 15.902118 2e-06 -2e-06
              CHANNELS 3 Zrotation Yrotation Xrotation
              JOINT LeftForeArm
              {
                OFFSET 28.739307 0.0 -1e-06
                CHANNELS 3 Zrotation Yrotation Xrotation
                JOINT LeftHand
                {
                  OFFSET 27.093981 -4e-06 0.0
                  CHANNELS 3 Zrotation Yrotation Xrotation
                  JOINT LeftHandThumb1
                  {
                    OFFSET 2.276781 3.380274 0.83384
                    CHANNELS 3 Zrotation Yrotation Xrotation
                    JOINT LeftHandThumb2
                    {
                      OFFSET 4.705309 -1e-06 -1e-06
                      CHANNELS 3 Zrotation Yrotation Xrotation
                      JOINT LeftHandThumb3
                      {
                        OFFSET 2.798515 0.0 3e-06
                        CHANNELS 3 Zrotation Yrotation Xrotation
                        JOINT LeftHandThumbEnd
                        {
                          OFFSET 3.180793 4e-06 -4e-06
                          CHANNELS 3 Zrotation Yrotation Xrotation
                        }
                      }
                    }
                  }
                  JOINT LeftHandIndex1
                  {
                    OFFSET 3.247786 2.352677 0.137192
                    CHANNELS 3 Zrotation Yrotation Xrotation
                    JOINT LeftHandIndex2
                    {
                      OFFSET 6.367095 1e-06 0.0
                      CHANNELS 3 Zrotation Yrotation Xrotation
                      JOINT LeftHandIndex3
                      {
                        OFFSET 3.662364 0.0 0.0
                        CHANNELS 3 Zrotation Yrotation Xrotation
                        JOINT LeftHandIndex4
                        {
                          OFFSET 2.329242 4e-06 -4e-06
                          CHANNELS 3 Zrotation Yrotation Xrotation
                          JOINT LeftHandIndexEnd
                          {
                            OFFSET 2.767823 1e-06 0.0
                            CHANNELS 3 Zrotation Yrotation Xrotation
                          }
                        }
                      }
                    }
                  }
                  JOINT LeftHandMiddle1
                  {
                    OFFSET 3.163612 0.945023 -0.406112
                    CHANNELS 3 Zrotation Yrotation Xrotation
                    JOINT LeftHandMiddle2
                    {
                      OFFSET 6.276789 3e-06 0.0
                      CHANNELS 3 Zrotation Yrotation Xrotation
                      JOINT LeftHandMiddle3
                      {
                        OFFSET 4.35652 -1e-06 4e-06
                        CHANNELS 3 Zrotation Yrotation Xrotation
                        JOINT LeftHandMiddle4
                        {
                          OFFSET 2.996877 0.0 8e-06
                          CHANNELS 3 Zrotation Yrotation Xrotation
                          JOINT LeftHandMiddleEnd
                          {
                            OFFSET 2.323256 3e-06 -4e-06
                            CHANNELS 3 Zrotation Yrotation Xrotation
                          }
                        }
                      }
                    }
                  }
                  JOINT LeftHandRing1
                  {
                    OFFSET 2.882606 -0.309162 0.107445
                    CHANNELS 3 Zrotation Yrotation Xrotation
                    JOINT LeftHandRing2
                    {
                      OFFSET 6.033198 0.0 4e-06
                      CHANNELS 3 Zrotation Yrotation Xrotation
                      JOINT LeftHandRing3
                      {
                        OFFSET 4.350578 3e-06 0.0
                        CHANNELS 3 Zrotation Yrotation Xrotation
                        JOINT LeftHandRing4
                        {
                          OFFSET 2.651321 2e-06 -7e-06
                          CHANNELS 3 Zrotation Yrotation Xrotation
                          JOINT LeftHandRingEnd
                          {
                            OFFSET 1.937663 1e-06 -4e-06
                            CHANNELS 3 Zrotation Yrotation Xrotation
                          }
                        }
                      }
                    }
                  }
                  JOINT LeftHandPinky1
                  {
                    OFFSET 2.865315 -1.525436 0.575687
                    CHANNELS 3 Zrotation Yrotation Xrotation
                    JOINT LeftHandPinky2
                    {
                      OFFSET 5.54936 1e-06 -8e-06
                      CHANNELS 3 Zrotation Yrotation Xrotation
                      JOINT LeftHandPinky3
                      {
                        OFFSET 3.070974 0.0 -4e-06
                        CHANNELS 3 Zrotation Yrotation Xrotation
                        JOINT LeftHandPinky4
                        {
                          OFFSET 1.549672 1e-06 0.0
                          CHANNELS 3 Zrotation Yrotation Xrotation
                          JOINT LeftHandPinkyEnd
                          {
                            OFFSET 1.952123 0.0 0.0
                            CHANNELS 3 Zrotation Yrotation Xrotation
                          }
                        }
                      }
                    }
                  }
                }
              }
            }
          }
          JOINT RightShoulder
          {
            OFFSET 23.161716 5.296122 -1.380114
            CHANNELS 3 Zrotation Yrotation Xrotation
            JOINT RightArm
            {
              OFFSET -16.027195 -2e-06 1.1e-05
              CHANNELS 3 Zrotation Yrotation Xrotation
              JOINT RightForeArm
              {
                OFFSET -28.736639 4e-06 2e-06
                CHANNELS 3 Zrotation Yrotation Xrotation
                JOINT RightHand
                {
                  OFFSET -27.133619 6e-06 0.0
                  CHANNELS 3 Zrotation Yrotation Xrotation
                  JOINT RightHandThumb1
                  {
                    OFFSET -2.274328 -3.351035 -0.83067
                    CHANNELS 3 Zrotation Yrotation Xrotation
                    JOINT RightHandThumb2
                    {
                      OFFSET -4.703594 -3e-06 2e-06
                      CHANNELS 3 Zrotation Yrotation Xrotation
                      JOINT RightHandThumb3
                      {
                        OFFSET -2.794935 -4e-06 -3e-06
                        CHANNELS 3 Zrotation Yrotation Xrotation
                        JOINT RightHandThumbEnd
                        {
                          OFFSET -3.183852 4e-06 1e-06
                          CHANNELS 3 Zrotation Yrotation Xrotation
                        }
                      }
                    }
                  }
                  JOINT RightHandIndex1
                  {
                    OFFSET -3.253496 -2.33755 -0.127667
                    CHANNELS 3 Zrotation Yrotation Xrotation
                    JOINT RightHandIndex2
                    {
                      OFFSET -6.344434 0.0 0.0
                      CHANNELS 3 Zrotation Yrotation Xrotation
                      JOINT RightHandIndex3
                      {
                        OFFSET -3.654871 0.0 -8e-06
                        CHANNELS 3 Zrotation Yrotation Xrotation
                        JOINT RightHandIndex4
                        {
                          OFFSET -2.327586 -1e-06 0.0
                          CHANNELS 3 Zrotation Yrotation Xrotation
                          JOINT RightHandIndexEnd
                          {
                            OFFSET -2.770001 3e-06 8e-06
                            CHANNELS 3 Zrotation Yrotation Xrotation
                          }
                        }
                      }
                    }
                  }
                  JOINT RightHandMiddle1
                  {
                    OFFSET -3.168223 -0.944764 0.411762
                    CHANNELS 3 Zrotation Yrotation Xrotation
                    JOINT RightHandMiddle2
                    {
                      OFFSET -6.266691 -1e-06 -4e-06
                      CHANNELS 3 Zrotation Yrotation Xrotation
                      JOINT RightHandMiddle3
                      {
                        OFFSET -4.348901 0.0 0.0
                        CHANNELS 3 Zrotation Yrotation Xrotation
                        JOINT RightHandMiddle4
                        {
                          OFFSET -3.00024 2e-06 -4e-06
                          CHANNELS 3 Zrotation Yrotation Xrotation
                          JOINT RightHandMiddleEnd
                          {
                            OFFSET -2.321477 -4e-06 -4e-06
                            CHANNELS 3 Zrotation Yrotation Xrotation
                          }
                        }
                      }
                    }
                  }
                  JOINT RightHandRing1
                  {
                    OFFSET -2.885654 0.293261 -0.119232
                    CHANNELS 3 Zrotation Yrotation Xrotation
                    JOINT RightHandRing2
                    {
                      OFFSET -6.032835 -1e-06 -4e-06
                      CHANNELS 3 Zrotation Yrotation Xrotation
                      JOINT RightHandRing3
                      {
                        OFFSET -4.33881 0.0 -4e-06
                        CHANNELS 3 Zrotation Yrotation Xrotation
                        JOINT RightHandRing4
                        {
                          OFFSET -2.654903 -4e-06 -4e-06
                          CHANNELS 3 Zrotation Yrotation Xrotation
                          JOINT RightHandRingEnd
                          {
                            OFFSET -1.935122 0.0 4e-06
                            CHANNELS 3 Zrotation Yrotation Xrotation
                          }
                        }
                      }
                    }
                  }
                  JOINT RightHandPinky1
                  {
                    OFFSET -2.866241 1.503904 -0.60527
                    CHANNELS 3 Zrotation Yrotation Xrotation
                    JOINT RightHandPinky2
                    {
                      OFFSET -5.553177 -2e-06 0.0
                      CHANNELS 3 Zrotation Yrotation Xrotation
                      JOINT RightHandPinky3
                      {
                        OFFSET -3.062664 -1e-06 -4e-06
                        CHANNELS 3 Zrotation Yrotation Xrotation
                        JOINT RightHandPinky4
                        {
                          OFFSET -1.546529 2e-06 4e-06
                          CHANNELS 3 Zrotation Yrotation Xrotation
                          JOINT RightHandPinkyEnd
                          {
                            OFFSET -1.952341 0.0 -4e-06
                            CHANNELS 3 Zrotation Yrotation Xrotation
                          }
                        }
                      }
                    }
                  }
                }
              }
            }
          }
        }
      }
    }
    JOINT LeftLeg
    {
      OFFSET -8.443107 2.567604 10.043214
      CHANNELS 3 Zrotation Yrotation Xrotation
      JOINT LeftShin
      {
        OFFSET 43.229198 1e-06 -1e-06
        CHANNELS 3 Zrotation Yrotation Xrotation
        JOINT LeftFoot
        {
          OFFSET 42.298611 1e-06 1e-06
          CHANNELS 3 Zrotation Yrotation Xrotation
          JOINT LeftToeBase
          {
            OFFSET 14.165858 1e-06 0.0
            CHANNELS 3 Zrotation Yrotation Xrotation
            JOINT LeftToeEnd
            {
              OFFSET 6.7141 -0.234461 0.0
              CHANNELS 3 Zrotation Yrotation Xrotation
            }
          }
        }
      }
    }
    JOINT RightLeg
    {
      OFFSET -8.303923 2.592729 -10.047278
      CHANNELS 3 Zrotation Yrotation Xrotation
      JOINT RightShin
      {
        OFFSET -43.369682 0.0 1e-06
        CHANNELS 3 Zrotation Yrotation Xrotation
        JOINT RightFoot
        {
          OFFSET -42.260784 4e-06 2e-06
          CHANNELS 3 Zrotation Yrotation Xrotation
          JOINT RightToeBase
          {
            OFFSET -14.222245 -2e-06 -1e-06
            CHANNELS 3 Zrotation Yrotation Xrotation
            JOINT RightToeEnd
            {
              OFFSET -6.660062 0.232574 -2e-06
              CHANNELS 3 Zrotation Yrotation Xrotation
            }
          }
        }
      }
    }
  }
}
MOTION
Frames: 4
Frame Time: 0.03333333333333333
0.0 0.0 0.0 0.0 -0.0 0.0 1.256374 48.277767 -3.11106 89.19001 -51.014538 91.577065 14.515875 3.681903 -0.875557 -5.038323 0.82266 -3.409988 21.009275 8.684353 -3.249433 22.177189 -1.014056 2.431992 -2.744113 -0.807134 2.956267 -29.162151 -2.175329 3.76565 7e-06 -0.0 -0.0 -0.14231 0.035393 0.024855 -0.130147 0.07756 0.100948 -0.155186 -0.010596 -0.031011 -5.371016 -74.112114 9.101585 72.646019 -5.776119 -38.743965 26.053036 -0.683345 -0.183522 -14.084738 64.907921 -8.966845 17.636639 -26.322735 52.411201 -19.466661 -14.395596 29.410389 -2e-06 -8.774822 -3e-06 15.395031 -18.309595 6.642861 -0.609777 -1.795654 -3.889327 -4.80709 -11.046813 -2.937852 4e-06 -20.976019 0.0 -5.019969 -25.033558 -4.031884 6e-06 -1e-06 -0.0 -10.634535 -5.68697 -3.565588 10.573272 -17.922955 -3.113899 3e-06 -13.821211 1e-06 -0.501776 -31.181511 -4.027018 -11.867102 -58.466446 7.374508 -13.982716 -7.150199 -2.875043 13.77273 -8.401496 -3.21824 0.347733 -34.211555 0.771655 -0.963029 -17.733372 2.62102 0.0 1e-06 -1e-06 -17.346424 -20.095222 -4.201782 21.757559 -1.638376 3.866431 2e-06 -6.338822 0.0 -1.697588 -22.591743 -6.194009 0.0 -6e-06 -3e-06 -23.109388 -81.401138 -146.50943 69.481155 -9.833221 -10.716418 34.470303 -0.709821 -0.022899 49.709396 56.446407 64.80442 22.182117 -20.375898 49.933315 -16.701815 -16.743528 28.476532 -1e-06 -12.690601 -1e-06 16.570854 -18.013584 2.44946 -0.10592 -1.513857 -4.275882 -5.039041 -5.612871 -2.953556 3e-06 -11.020521 -0.0 -6.1113 -15.895338 -3.840469 0.0 -0.0 -0.0 -10.283371 -5.680291 -4.341836 11.028294 -11.302406 -2.372634 -1.38427 -14.238583 -6.320121 -0.62544 -26.924191 -3.8276 -4.795934 -49.468342 -3.981745 -13.708526 -7.363479 -3.720938 18.141151 -14.052735 -3.242675 3e-06 -18.787275 -0.0 -0.429713 -8.456045 2.555504 -1e-06 -1e-06 -1e-06 -15.923536 -20.094486 -5.473582 30.41921 -7.190822 1.735926 1e-06 -8.162927 -0.0 -1.861903 -22.861469 -6.167942 1e-06 -2e-06 -0.0 151.002487 -6.366396 -1.62957 89.605202 -2.948673 0.482917 -101.94413 11.405014 14.935349 -40.407635 1.798119 1.642927 -1.000002 0.0 0.0 -67.308876 -9.547589 4.917497 134.219681 0.013613 0.340488 -119.103149 10.849344 -6.137852 -26.805786 0.9382 1.485202 -1.000005 0.0 -0.0 
0.0 0.0 0.0 0.0 -0.0 0.0 1.285809 48.006538 -1.432015 88.450851 -51.515076 91.678116 14.163359 3.914828 -0.83402 -5.163555 0.862512 -3.139324 20.906553 8.809723 -2.802958 22.548281 -1.092353 2.358615 -2.756305 -0.771722 2.71337 -29.054779 -2.050776 3.570487 6e-06 -1e-06 0.0 -0.137136 0.039267 0.01934 -0.068558 0.072005 0.109304 -0.075073 0.004396 -0.055173 -8.787496 -74.183212 12.660141 74.703712 -7.204478 -38.084946 26.183094 -0.932702 -0.121564 -12.750654 66.373642 -6.07409 17.636631 -26.322725 52.411201 -19.466661 -14.395597 29.410389 -1e-06 -8.774821 -2e-06 15.597359 -18.142155 6.471644 -0.609776 -1.795653 -3.889327 -4.80709 -11.046811 -2.937851 5e-06 -20.976015 -1e-06 -5.01997 -25.033558 -4.031883 6e-06 -0.0 0.0 -10.634537 -5.686971 -3.565589 10.573274 -17.922951 -3.113899 3e-06 -13.821211 0.0 -0.501775 -31.181498 -4.027017 -11.759855 -58.709751 7.347561 -13.982714 -7.150197 -2.875044 13.77273 -8.401493 -3.21824 0.347736 -34.211555 0.771653 -0.963029 -17.73337 2.62102 0.0 -0.0 0.0 -17.346422 -20.095221 -4.201783 21.757561 -1.638375 3.86643 2e-06 -6.338821 0.0 -1.697588 -22.591742 -6.194006 -1e-06 -6e-06 -2e-06 -22.015377 -81.043602 -147.028641 68.185158 -10.301386 -10.233267 35.091995 -1.001427 -0.003682 52.227276 56.457378 67.066528 22.182117 -20.375898 49.933331 -16.701813 -16.743528 28.476532 -2e-06 -12.6906 -1e-06 16.516838 -17.985514 2.534806 -0.10592 -1.513856 -4.275882 -5.039042 -5.612872 -2.953558 5e-06 -11.020519 -2e-06 -6.111297 -15.895332 -3.840472 -0.0 -0.0 -0.0 -10.283371 -5.680289 -4.341841 11.028294 -11.302403 -2.372633 -1.384269 -14.238579 -6.320122 -0.625436 -26.924187 -3.8276 -4.761764 -49.57217 -3.782591 -13.708524 -7.363477 -3.720941 18.141148 -14.052736 -3.242674 5e-06 -18.78727 -1e-06 -0.429712 -8.456041 2.555504 -0.0 0.0 -0.0 -15.923536 -20.094481 -5.47359 30.41921 -7.190825 1.735927 2e-06 -8.162921 1e-06 -1.861902 -22.861467 -6.167941 -2e-06 -3e-06 0.0 152.616119 -6.748952 -1.961495 86.914925 -3.129181 0.559532 -100.57618 11.287355 15.030513 -39.845673 1.746664 1.536369 -1.000001 1e-06 1e-06 -66.014709 -9.128131 4.30144 133.061081 0.051787 0.388125 -118.555748 11.03013 -5.820924 -27.018873 0.915139 1.464121 -1.000003 0.0 0.0 
0.0 0.0 0.0 0.0 -0.0 0.0 1.261445 47.744747 0.494124 87.681175 -51.89222 91.506996 13.791858 4.035107 -0.733228 -5.292249 0.89023 -2.773293 20.840282 8.886474 -2.310635 23.02319 -1.162883 2.405696 -2.782983 -0.797669 2.364805 -28.972618 -1.969846 3.305989 6e-06 -1e-06 -0.0 -0.131016 0.006225 0.027468 -0.062298 0.040357 0.125254 -0.038121 -0.030555 -0.060828 -12.069354 -74.176857 16.060085 76.797997 -8.868943 -36.888756 26.155006 -1.102469 -0.051774 -12.354878 67.943069 -4.313514 17.636627 -26.322733 52.411198 -19.46666 -14.395598 29.410389 -1e-06 -8.774822 -1e-06 15.810032 -17.970562 6.279197 -0.609777 -1.795654 -3.889328 -4.807089 -11.046809 -2.93785 5e-06 -20.976015 1e-06 -5.019966 -25.033552 -4.031882 6e-06 -1e-06 -0.0 -10.634533 -5.686968 -3.565588 10.573276 -17.922956 -3.113901 4e-06 -13.821209 1e-06 -0.501777 -31.181505 -4.027015 -11.697463 -58.807991 7.311861 -13.982714 -7.150195 -2.875042 13.772731 -8.401493 -3.218241 0.347735 -34.211544 0.771656 -0.963029 -17.73337 2.621022 0.0 0.0 -1e-06 -17.346416 -20.095215 -4.201782 21.757561 -1.638375 3.866427 2e-06 -6.338824 1e-06 -1.697587 -22.591745 -6.194005 -1e-06 -6e-06 -1e-06 -22.413122 -80.65126 -146.065689 66.866577 -10.976069 -9.659863 35.07518 -1.29247 0.057791 54.572933 56.739635 69.355705 22.182119 -20.375895 49.933311 -16.701813 -16.74353 28.476532 -2e-06 -12.690601 -1e-06 16.553478 -17.940855 2.577667 -0.10592 -1.513855 -4.27588 -5.039041 -5.612873 -2.953556 5e-06 -11.020523 -1e-06 -6.111298 -15.895338 -3.84047 -1e-06 -0.0 -0.0 -10.283369 -5.680288 -4.341838 11.028296 -11.302407 -2.372634 -1.384268 -14.238583 -6.320121 -0.625438 -26.924194 -3.827599 -4.727371 -49.684685 -3.612214 -13.708525 -7.363473 -3.720939 18.14115 -14.052739 -3.242676 5e-06 -18.787271 -1e-06 -0.429712 -8.456045 2.555504 -0.0 0.0 -0.0 -15.923534 -20.094484 -5.473584 30.41921 -7.190823 1.735924 2e-06 -8.162926 -0.0 -1.861903 -22.861469 -6.167941 1e-06 -3e-06 -1e-06 154.801102 -7.361804 -2.663969 83.630043 -3.304062 0.698922 -99.11615 11.174143 15.098576 -39.646938 1.721794 1.47459 -1.0 0.0 0.0 -64.197418 -8.346225 3.503016 131.447571 -0.012763 0.410184 -117.678848 10.968239 -5.309831 -28.3109 0.914154 1.44191 -1.000003 -0.0 -0.0 
0.0 0.0 0.0 0.0 -0.0 0.0 1.123321 47.410522 2.471759 87.007622 -52.326569 90.95784 13.364447 4.057898 -0.619274 -5.426258 0.822955 -2.326901 20.701145 8.862691 -1.742399 23.450296 -1.266076 2.447152 -2.825058 -0.972635 1.875242 -28.856073 -1.850245 3.005276 6e-06 -1e-06 0.0 -0.142999 -0.077647 0.042481 -0.044053 -0.055634 0.160459 -0.034954 -0.102071 -0.068841 -14.800998 -74.228256 18.878511 78.726852 -10.654118 -35.41116 25.836926 -1.122384 0.029236 -12.510528 69.676521 -3.349741 17.636641 -26.322737 52.411198 -19.466658 -14.395597 29.410385 1e-06 -8.774822 -3e-06 15.846054 -18.01161 6.186211 -0.609777 -1.795653 -3.889327 -4.80709 -11.046813 -2.937851 4e-06 -20.976017 3e-06 -5.01997 -25.033556 -4.031882 6e-06 -0.0 1e-06 -10.634536 -5.686972 -3.565589 10.573274 -17.922955 -3.113898 3e-06 -13.821213 2e-06 -0.501777 -31.181505 -4.027013 -11.511704 -58.788933 7.024471 -13.982716 -7.150198 -2.875043 13.772731 -8.401493 -3.218239 0.347733 -34.211555 0.771658 -0.963028 -17.733372 2.621022 0.0 -1e-06 -1e-06 -17.346422 -20.095217 -4.201782 21.757561 -1.638376 3.866429 1e-06 -6.338824 1e-06 -1.69759 -22.591749 -6.194006 0.0 -5e-06 -2e-06 -22.812963 -80.116783 -145.323898 65.698692 -11.895161 -8.511193 34.643459 -1.234797 0.205404 55.783836 57.35976 71.073395 22.182123 -20.375895 49.933315 -16.701811 -16.743526 28.476522 -0.0 -12.690604 -3e-06 16.604074 -17.947002 2.538771 -0.10592 -1.513855 -4.27588 -5.039042 -5.612872 -2.953558 4e-06 -11.02052 -1e-06 -6.111301 -15.895339 -3.840469 0.0 1e-06 -1e-06 -10.283373 -5.68029 -4.341838 11.028294 -11.302404 -2.372632 -1.384271 -14.238585 -6.320119 -0.625441 -26.924191 -3.827601 -4.666706 -49.792282 -3.478246 -13.708527 -7.363477 -3.72094 18.14115 -14.052739 -3.242673 5e-06 -18.787271 -1e-06 -0.429711 -8.456047 2.555503 0.0 -0.0 0.0 -15.923541 -20.094484 -5.473582 30.419218 -7.190826 1.73593 1e-06 -8.162925 0.0 -1.861905 -22.861471 -6.167942 -0.0 -3e-06 -1e-06 157.160065 -7.998005 -3.614397 80.079102 -3.48707 0.8084 -97.415771 11.08349 14.970009 -39.173462 1.726878 1.533694 -1.0 -0.0 -0.0 -62.18045 -7.347456 2.734266 129.261322 0.007743 0.477143 -115.886116 10.279035 -4.002923 -28.716803 0.906167 1.444507 -1.000002 -0.0 0.0 
